<svg width="125" height="125" viewBox="0 0 125 125" fill="none" xmlns="http://www.w3.org/2000/svg">
<g clip-path="url(#clip0_2_4)">
<path d="M115.156 0.208984H9.17541C4.12472 0.208984 0 4.20744 0 9.13186V115.659C0 120.584 4.12472 124.582 9.17541 124.582H115.113C120.206 124.582 124.289 120.584 124.289 115.659V9.13186C124.289 4.20744 120.164 0.208984 115.113 0.208984H115.156ZM19.1926 104.253V48.2747H37.7959V104.253H19.1926ZM28.4943 40.6565H28.368C22.1388 40.6565 18.0983 36.3635 18.0983 30.9761C18.0983 25.5887 22.2651 21.2956 28.6205 21.2956C34.976 21.2956 38.8903 25.4624 39.0165 30.9761C39.0165 36.3635 34.976 40.6565 28.4943 40.6565ZM104.886 104.253H86.2825V74.3278C86.2825 66.7938 83.5888 61.659 76.8546 61.659C71.7197 61.659 68.6472 65.1103 67.3003 68.4774C66.7953 69.6559 66.669 71.3394 66.669 73.023V104.295H48.0657C48.0657 104.295 48.3182 53.5779 48.0657 48.3167H66.669V56.2295C69.1523 52.3994 73.5716 46.9699 83.4204 46.9699C95.6684 46.9699 104.844 54.9668 104.844 72.1812V104.253H104.886Z" fill="white"/>
</g>
<defs>
<clipPath id="clip0_2_4">
<rect width="124.331" height="124.331" fill="white" transform="translate(0 0.208984)"/>
</clipPath>
</defs>
</svg>
